<svg width="16" height="16" viewBox="0 0 16 16" fill="none" xmlns="http://www.w3.org/2000/svg">
<path fill-rule="evenodd" clip-rule="evenodd" d="M0 7.50001C-1.20706e-08 7.22386 0.223858 7.00001 0.5 7.00001L14.5 7C14.7761 7 15 7.22386 15 7.5C15 7.77615 14.7761 8 14.5 8L0.5 8.00001C0.223858 8.00001 1.20706e-08 7.77615 0 7.50001Z" fill="white"/>
<path fill-rule="evenodd" clip-rule="evenodd" d="M1.51804 9.8109C1.6087 9.34018 2.02063 9 2.5 9H12.5C13.0523 9 13.5 9.44772 13.5 10V14C13.5 14.3318 13.3354 14.642 13.0606 14.8281C12.7859 15.0141 12.4367 15.0517 12.1286 14.9285L2.12861 10.9285C1.68353 10.7504 1.42739 10.2816 1.51804 9.8109ZM2.5 10L12.5 14V10H2.5Z" fill="white"/>
<path fill-rule="evenodd" clip-rule="evenodd" d="M1.51804 5.18911C1.6087 5.65983 2.02063 6.00001 2.5 6.00001L12.5 6C13.0523 6 13.5 5.55229 13.5 5V1C13.5 0.668181 13.3354 0.357967 13.0606 0.171937C12.7859 -0.0140925 12.4367 -0.0517083 12.1286 0.071528L2.12861 4.07153C1.68353 4.24956 1.42739 4.71839 1.51804 5.18911ZM2.5 5.00001L12.5 1V5L2.5 5.00001Z" fill="white"/>
</svg>
