<svg width="15" height="15" viewBox="0 0 15 15" fill="none" xmlns="http://www.w3.org/2000/svg">
<path fill-rule="evenodd" clip-rule="evenodd" d="M7.5 0C7.77615 0 8 0.223858 8 0.5V14.5C8 14.7761 7.77615 15 7.5 15C7.22386 15 7 14.7761 7 14.5V0.5C7 0.223858 7.22386 0 7.5 0Z" fill="white"/>
<path fill-rule="evenodd" clip-rule="evenodd" d="M5.18911 1.51804C5.65983 1.6087 6 2.02063 6 2.5V12.5C6 13.0523 5.55229 13.5 5 13.5H1C0.668181 13.5 0.357967 13.3354 0.171937 13.0606C-0.0140925 12.7859 -0.0517083 12.4367 0.071528 12.1286L4.07153 2.12861C4.24956 1.68353 4.71839 1.42739 5.18911 1.51804ZM5 2.5L1 12.5H5V2.5Z" fill="white"/>
<path fill-rule="evenodd" clip-rule="evenodd" d="M9.8109 1.51804C9.34018 1.6087 9 2.02063 9 2.5V12.5C9 13.0523 9.44772 13.5 10 13.5H14C14.3318 13.5 14.642 13.3354 14.8281 13.0606C15.0141 12.7859 15.0517 12.4367 14.9285 12.1286L10.9285 2.12861C10.7504 1.68353 10.2816 1.42739 9.8109 1.51804ZM10 2.5L14 12.5H10V2.5Z" fill="white"/>
</svg>
