<svg width="32" height="32" viewBox="0 0 32 32" fill="none" xmlns="http://www.w3.org/2000/svg">
<path fill-rule="evenodd" clip-rule="evenodd" d="M0 15C-2.41411e-08 14.4477 0.447715 14 1 14L29 14C29.5523 14 30 14.4477 30 15C30 15.5523 29.5523 16 29 16L1 16C0.447715 16 2.41411e-08 15.5523 0 15Z"/>
<path fill-rule="evenodd" clip-rule="evenodd" d="M3.03609 19.6218C3.21739 18.6803 4.04126 18 5 18H25C26.1046 18 27 18.8954 27 20V28C27 28.6636 26.6708 29.2841 26.1213 29.6561C25.5717 30.0282 24.8734 30.1034 24.2572 29.8569L4.25722 21.8569C3.36706 21.5009 2.85478 20.5632 3.03609 19.6218ZM5 20L25 28V20H5Z"/>
<path fill-rule="evenodd" clip-rule="evenodd" d="M3.03609 10.3782C3.21739 11.3197 4.04126 12 5 12L25 12C26.1046 12 27 11.1046 27 10V2.00001C27 1.33636 26.6708 0.715934 26.1213 0.343875C25.5717 -0.028185 24.8734 -0.103416 24.2572 0.143056L4.25722 8.14305C3.36705 8.49912 2.85478 9.43678 3.03609 10.3782ZM5 10L25 2.00001V10L5 10Z"/>
</svg>
