<svg width="32" height="32" viewBox="0 0 32 32" fill="none" xmlns="http://www.w3.org/2000/svg">
<path fill-rule="evenodd" clip-rule="evenodd" d="M15 0C15.5523 0 16 0.447715 16 1V29C16 29.5523 15.5523 30 15 30C14.4477 30 14 29.5523 14 29V1C14 0.447715 14.4477 0 15 0Z"/>
<path fill-rule="evenodd" clip-rule="evenodd" d="M10.3782 3.03609C11.3197 3.21739 12 4.04126 12 5V25C12 26.1046 11.1046 27 10 27H2.00001C1.33636 27 0.715935 26.6708 0.343875 26.1213C-0.028185 25.5717 -0.103416 24.8734 0.143056 24.2572L8.14305 4.25722C8.49912 3.36705 9.43678 2.85478 10.3782 3.03609ZM10 5L2.00001 25H10V5Z"/>
<path fill-rule="evenodd" clip-rule="evenodd" d="M19.6218 3.03609C18.6803 3.21739 18 4.04126 18 5V25C18 26.1046 18.8954 27 20 27H28C28.6636 27 29.2841 26.6708 29.6561 26.1213C30.0282 25.5717 30.1034 24.8734 29.8569 24.2572L21.8569 4.25722C21.5009 3.36705 20.5632 2.85478 19.6218 3.03609ZM20 5L28 25H20V5Z"/>
</svg>
